<svg xmlns="http://www.w3.org/2000/svg" xmlns:xlink="http://www.w3.org/1999/xlink" version="1.1" width="256" height="256" viewBox="0 0 256 256" xml:space="preserve">
  <!-- Задній фон - білий круг -->
  <circle cx="128" cy="128" r="150" fill="#ffffff" />

  <!-- Фігура телефонної книги -->
<g style="stroke: none; stroke-width: 0; stroke-dasharray: none; stroke-linecap: butt; stroke-linejoin: miter; stroke-miterlimit: 10; fill: none; fill-rule: nonzero; opacity: 1;" transform="translate(1.4065934065934016 1.4065934065934016) scale(2.81 2.81)" >
	<path d="M 61.471 53.003 c -2.232 0 -4.048 -1.816 -4.048 -4.048 c 0 -2.232 1.816 -4.048 4.048 -4.048 s 4.048 1.816 4.048 4.048 C 65.519 51.188 63.703 53.003 61.471 53.003 z M 61.471 47.875 c -0.596 0 -1.081 0.485 -1.081 1.081 c 0 0.596 0.485 1.081 1.081 1.081 c 0.596 0 1.081 -0.485 1.081 -1.081 C 62.552 48.36 62.067 47.875 61.471 47.875 z" style="stroke: none; stroke-width: 1; stroke-dasharray: none; stroke-linecap: butt; stroke-linejoin: miter; stroke-miterlimit: 10; fill: rgb(0,0,0); fill-rule: nonzero; opacity: 1;" transform=" matrix(1 0 0 1 0 0) " stroke-linecap="round" />
	<path d="M 75.222 39.317 h -1.033 V 13.171 c 0 -2.587 -2.105 -4.692 -4.691 -4.692 H 35.51 V 2.272 c 0 -0.918 -0.547 -1.74 -1.393 -2.094 c -0.818 -0.343 -1.753 -0.179 -2.406 0.414 l -4.473 3.63 l -4.473 -3.63 c -0.652 -0.594 -1.586 -0.756 -2.406 -0.414 c -0.846 0.355 -1.393 1.177 -1.393 2.094 V 8.48 h -2.704 c -2.587 0 -4.692 2.105 -4.692 4.692 v 72.138 c 0 2.587 2.105 4.691 4.692 4.691 h 53.236 c 2.587 0 4.691 -2.105 4.691 -4.691 V 58.594 h 1.033 c 1.769 0 3.208 -1.439 3.208 -3.208 v -12.86 C 78.43 40.756 76.991 39.317 75.222 39.317 z M 71.221 13.171 v 26.145 h -5.138 v -27.87 h 3.414 C 70.448 11.447 71.221 12.22 71.221 13.171 z M 21.932 3.737 L 26 7.038 c 0.717 0.583 1.757 0.585 2.475 0.001 l 4.068 -3.301 V 8.48 H 21.932 V 3.737 z M 14.537 85.309 V 13.171 c 0 -0.951 0.774 -1.724 1.724 -1.724 h 46.855 v 27.87 h -1.809 c -5.315 0 -9.638 4.324 -9.638 9.639 c 0 5.315 4.323 9.638 9.638 9.638 h 1.809 v 28.439 H 16.261 C 15.31 87.033 14.537 86.259 14.537 85.309 z M 71.221 85.309 c 0 0.95 -0.774 1.724 -1.724 1.724 h -3.414 V 58.594 h 5.138 V 85.309 z M 61.307 55.379 c -3.542 0 -6.424 -2.882 -6.424 -6.424 c 0 -3.542 2.882 -6.424 6.424 -6.424 l 13.909 -0.006 l 0.006 12.854 H 61.307 z" style="stroke: none; stroke-width: ; stroke-dasharray: none; stroke-linecap: butt; stroke-linejoin: miter; stroke-miterlimit: 10; fill: rgb(0,0,0); fill-rule: nonzero; opacity: ;" transform=" matrix(1 0 0 1 0 0) " stroke-linecap="round" />
	<path d="M 41.873 70.703 c -6.287 0 -12.809 -7.739 -16.893 -16.35 c -4.678 -9.865 -6.446 -21.486 0.149 -25.21 c 0.425 -0.24 0.906 -0.37 1.428 -0.386 c 0.76 -0.023 2.141 -0.109 3.437 -0.195 l 0 0 c 0.766 -0.051 1.501 -0.103 2.064 -0.143 c 1.356 -0.107 2.567 0.834 2.827 2.167 l 1.613 8.253 c 0.18 0.918 -0.139 1.879 -0.834 2.508 l -4 3.62 l 4.815 10.152 l 5.333 -0.808 c 0.928 -0.136 1.873 0.22 2.471 0.941 l 5.372 6.473 c 0.865 1.044 0.816 2.573 -0.113 3.558 l -1.388 1.477 c -0.894 0.956 -1.85 1.988 -2.355 2.569 c -0.344 0.395 -0.749 0.685 -1.202 0.861 C 43.7 70.539 42.789 70.703 41.873 70.703 z M 30.24 31.552 L 30.24 31.552 c -1.349 0.09 -2.797 0.179 -3.59 0.204 c -4.717 2.638 -3.035 12.718 1.041 21.313 c 4.076 8.594 10.819 16.271 15.817 14.326 c 0.549 -0.634 1.534 -1.699 2.458 -2.687 l 1.203 -1.281 l -5.082 -6.123 l -5.389 0.815 c -1.184 0.176 -2.319 -0.427 -2.831 -1.507 l -5.014 -10.571 c -0.511 -1.08 -0.26 -2.344 0.625 -3.145 l 4.041 -3.656 l -1.526 -7.81 C 31.485 31.467 30.874 31.509 30.24 31.552 z M 47.344 63.638 L 47.344 63.638 L 47.344 63.638 z" style="stroke: none; stroke-width: 1; stroke-dasharray: none; stroke-linecap: butt; stroke-linejoin: miter; stroke-miterlimit: 10; fill: rgb(0,0,0); fill-rule: nonzero; opacity: 1;" transform=" matrix(1 0 0 1 0 0) " stroke-linecap="round" />
</g>
</svg>
