<svg width="324.4184265136719" height="324.4184265136719" viewBox="0 0 594 594" class="css-1j8o68f"><defs id="SvgjsDefs2582"></defs><g id="SvgjsG2583" featurekey="rootContainer" transform="matrix(11.88,0,0,11.88,0.5939923524856567,0)" fill="#111111"><path xmlns="http://www.w3.org/2000/svg" d="M24.95 0a25 25 0 1 0 25 25 25 25 0 0 0-25-25zm0 46.91a22 22 0 1 1 22-22 22 22 0 0 1-22 21.99z"></path><path xmlns="http://www.w3.org/2000/svg" d="M24.95 3.65a21.3 21.3 0 1 0 21.3 21.3 21.33 21.33 0 0 0-21.3-21.3z"></path></g><g id="SvgjsG2584" featurekey="symbolFeature-0" transform="matrix(2.4976713048430175,0,0,2.4976713048430175,209.84236285558248,141.27212260399133)" fill="#f6f6f6"><g xmlns="http://www.w3.org/2000/svg"><g><path d="M60.6677055,48.75H9.3327456c-0.5527344,0-1-0.4472656-1-1V10.5c0-0.5527344,0.4472656-1,1-1h51.3349609    c0.5527344,0,1,0.4472656,1,1v37.25C61.6677055,48.3027344,61.2204399,48.75,60.6677055,48.75z M10.3327456,46.75h49.3349609V11.5    H10.3327456V46.75z"></path></g><g><path d="M61.9216118,60.5h-53.84375c-1.4199219,0-2.7041016-0.7275391-3.4355469-1.9453125    c-0.7304688-1.2177734-0.7675781-2.6933594-0.0996094-3.9462891l3.9072266-7.3291016    C8.6237612,46.9541016,8.9636049,46.75,9.3327456,46.75h51.3349609c0.3691406,0,0.7089844,0.2041016,0.8828125,0.5292969    l3.9072304,7.3291016c0.6679688,1.2539063,0.6298828,2.7294922-0.1005859,3.9472656    C64.6257172,59.7734375,63.3415337,60.5,61.9216118,60.5z M9.9333315,48.75l-3.625,6.7998047    c-0.3349609,0.6269531-0.3164063,1.3662109,0.0488281,1.9755859C6.7233706,58.1357422,7.3669252,58.5,8.0778627,58.5h53.84375    c0.7109375,0,1.3544922-0.3642578,1.7207031-0.9736328c0.3662148-0.6103516,0.3847694-1.3486328,0.0498047-1.9765625    l-3.625-6.7998047H9.9333315z"></path></g><g><path d="M64.5749359,56.0791016H5.425519c-0.5527344,0-1-0.4472656-1-1s0.4472656-1,1-1h59.1494179c0.5527344,0,1,0.4472656,1,1    S65.1276703,56.0791016,64.5749359,56.0791016z"></path></g><g><g><path d="M17.7799587,33.5143776l-2.2644463-8.923563h1.2181969l1.059185,4.5148754     c0.2646618,1.112011,0.5034504,2.22402,0.6619225,3.0848427h0.026413     c0.1460762-0.8872356,0.4236736-1.9464207,0.7282238-3.0983181l1.1917839-4.5014h1.2047234l1.0855961,4.527813     c0.2517262,1.059185,0.489975,2.1183701,0.6225739,3.0584316h0.026413     c0.1854248-0.9794102,0.4366112-1.9728355,0.7147484-3.0848446l1.1783085-4.5014h1.1783104l-2.5285683,8.923563h-1.2047215     l-1.1254864-4.6469364c-0.2781372-1.1389599-0.463562-2.0127201-0.5826855-2.9128933h-0.026413     c-0.1590118,0.8872356-0.3573742,1.7609959-0.6883354,2.9128933l-1.2710209,4.6469364H17.7799587z"></path></g><g><path d="M30.3945904,33.5143776l-2.2644463-8.923563h1.2181969l1.059185,4.5148754     c0.2646618,1.112011,0.5034504,2.22402,0.6619244,3.0848427h0.0264111     c0.1460762-0.8872356,0.4236736-1.9464207,0.7282238-3.0983181l1.1917839-4.5014h1.2047234l1.085598,4.527813     c0.2517242,1.059185,0.4899712,2.1183701,0.6225739,3.0584316h0.026413     c0.1854248-0.9794102,0.4366074-1.9728355,0.7147446-3.0848446l1.1783104-4.5014h1.1783104l-2.5285683,8.923563H35.293251     l-1.1254845-4.6469364c-0.2781372-1.1389599-0.463562-2.0127201-0.5826836-2.9128933H33.55867     c-0.1590118,0.8872356-0.3573761,1.7609959-0.6883354,2.9128933l-1.2710228,4.6469364H30.3945904z"></path></g><g><path d="M43.0092201,33.5143776l-2.2644424-8.923563h1.2181969l1.059185,4.5148754     c0.2646599,1.112011,0.5034485,2.22402,0.6619225,3.0848427h0.026413     c0.1460762-0.8872356,0.4236717-1.9464207,0.7282219-3.0983181l1.1917839-4.5014h1.2047234l1.085598,4.527813     c0.2517242,1.059185,0.489975,2.1183701,0.6225739,3.0584316h0.026413     c0.1854248-0.9794102,0.4366112-1.9728355,0.7147446-3.0848446l1.1783104-4.5014h1.1783104l-2.5285683,8.923563h-1.2047234     l-1.1254845-4.6469364c-0.2781372-1.1389599-0.463562-2.0127201-0.5826836-2.9128933h-0.026413     c-0.1590118,0.8872356-0.3573761,1.7609959-0.6883354,2.9128933l-1.2710228,4.6469364H43.0092201z"></path></g><g><path d="M52.9093208,32.8260422c0-0.4899712,0.3309631-0.8344097,0.7945251-0.8344097s0.7810478,0.3444386,0.7810478,0.8344097     c0,0.4765015-0.3045502,0.8338737-0.7945251,0.8338737C53.2273483,33.6599159,52.9093208,33.3025436,52.9093208,32.8260422z"></path></g></g></g></g><g id="SvgjsG2585" featurekey="nameFeature-0" transform="matrix(2.101020730795476,0,0,2.101020730795476,192.202204110398,278.2786148663052)" fill="#f6f6f6"><path d="M18.72 20 c0.72 5.76 -8.56 7.96 -12.56 7.6 c0.28 3.6 0.76 7.12 1.28 10.52 c0.32 1.16 -1.56 1.48 -1.72 0.44 c-1.84 -12.08 -1.76 -21.56 -1.12 -22.24 c0.32 -0.36 0.88 -0.36 1.24 0 c0.56 0.56 -0.04 0.64 0.12 7.04 c4.04 -5.48 11.96 -9.72 12.76 -3.36 z M17 21.12 c0.6 -6.24 -8.32 0.28 -10.52 4.76 c3.36 0.24 9.92 -1.48 10.52 -4.76 z M36.794000000000004 17.44 c0.12 6.64 -0.6 13.16 -0.32 19.68 c0.04 1.08 -1.72 1.24 -1.76 0 c-0.12 -2.48 -0.08 -4.96 0 -7.44 c-0.32 0.08 -3.56 -0.08 -6.68 0.52 c0.04 2.6 0.32 4.44 0.68 5.96 c0.12 0.64 -0.32 1.12 -0.84 1.12 c-1 0 -1.04 -1.2 -1.24 -2.72 c-0.8 -5.6 -0.16 -11.76 0.8 -17.32 c0.12 -0.88 1.72 -0.84 1.72 0.24 c-0.16 1.12 -1.04 5.64 -1.12 10.96 c2.6 -0.48 6.4 -0.56 6.76 -0.44 c0.12 -3.52 0.32 -7.04 0.24 -10.56 c-0.04 -1.12 1.72 -1.2 1.76 0 z M60.028000000000006 18.32 c0.24 0.4 0.12 0.96 -0.32 1.2 c-1.12 0.6 -3.68 1.32 -4.96 1.64 c2.72 5.88 -2.68 17.04 -8.96 13.84 c-2.12 -1.08 -3.32 -3.16 -3.6 -5.48 s0.16 -4.68 1.04 -6.84 c0.36 -0.88 0.8 -1.76 1.4 -2.56 c0.96 -1.32 2.48 -2.24 4 -2.76 c1.28 -0.44 2.56 -0.12 3.68 0.64 c0.4 0.28 0.72 0.6 1.04 0.96 c0.64 0.72 0.2 0.64 1.68 0.28 c4.08 -1 4.44 -1.88 5 -0.92 z M51.908 19.96 c-1.64 -1.68 -3.52 -1.52 -4.88 0.32 c1.56 0.44 3.8 -0.12 4.88 -0.32 z M53.668 25.880000000000003 c0.2 -1.64 0.08 -2.88 -0.68 -4.36 c-1.68 0.36 -5.92 1.2 -7.2 0.08 c-2.12 3.24 -2.96 8.92 0 11.36 c4.08 3 7.36 -2.72 7.88 -7.08 z M77.302 22.48 c0.76 5.32 -0.04 12.16 -0.04 15.16 c0 0.48 -0.4 0.88 -0.88 0.88 c-1.2 0 -0.88 -1.32 -0.68 -4.6 c0.16 -3.32 0.36 -7.6 -0.08 -10.92 c-1.04 -7.4 -5 -4.72 -7.76 6.48 c-1.76 7.16 -1.16 7.68 -1.92 8.12 c-0.44 0.24 -0.96 0.12 -1.2 -0.32 c-0.36 -0.56 -0.92 -9.04 -0.08 -18.56 c0.12 -1.32 1.84 -1 1.76 0 c-0.32 3.68 -0.48 7.36 -0.44 11.04 c0.64 -2.64 1.48 -5.56 2.6 -8.04 c2.92 -6.36 7.76 -6.24 8.72 0.76 z M96.096 34.72 c0.04 0.2 0.04 0.44 -0.08 0.68 c-0.6 0.96 -8.28 2.48 -9.12 1.64 c-1.48 -1.48 -0.36 -18.2 0.2 -19.16 c0.12 -0.2 0.32 -0.4 0.52 -0.4 c1.92 -0.28 3.84 -0.44 6.96 -0.4 c0.48 0 0.88 0.4 0.88 0.88 c0 1.44 -1.56 0.56 -6.76 1.12 c-0.48 2.92 -0.76 5.92 -0.8 9.16 c1.16 -0.04 1.92 -0.28 3.6 -0.6 c1.24 -0.28 1.48 1.48 0.44 1.68 c-1.32 0.28 -2.64 0.6 -4.04 0.68 c0.04 1.84 0.16 3.68 0.4 5.52 c5.28 -0.16 7.32 -2.56 7.8 -0.8 z"></path></g><g id="SvgjsG2586" featurekey="nameFeature-1" transform="matrix(2.582324909117279,0,0,2.582324909117279,190.16394628829087,333.5137974447546)" fill="#f6f6f6"><path d="M10.08 23.84 c11.12 3.92 5.32 16.04 -2.44 12.72 l-1.12 0 c-0.36 0.84 -1.04 0.84 -1.4 0 c-0.8 -7 -1.6 -14.68 0 -21.4 c0.24 -1.16 1.64 -0.6 1.36 0.48 c-0.32 1.36 -0.56 2.88 -0.68 4.36 l0.04 0.04 l0.16 0.04 l0.04 0 c3.16 -4.52 9.08 -7.36 9.72 -3.28 c0.52 3.64 -2.56 5.52 -5.68 6.8 l-0.04 0.04 l0 0.16 z M14.28 16.96 c-0.4 -1.56 -6.44 2 -8.08 5.84 l0 0.04 l0.12 0.12 l0.04 0 c2.76 -0.68 8.8 -2.8 7.92 -6 z M14.8 31.32 c0.28 -4.24 -5.72 -6.6 -9.04 -6.36 l-0.04 0 l-0.08 0.08 l0 0.04 c0.04 2.72 0.28 5.52 0.56 8.2 l0 0.04 c1.56 2.84 7.84 2.88 8.6 -2 z M39.354 18.32 c0.24 0.4 0.12 0.96 -0.32 1.2 c-1.12 0.6 -3.68 1.32 -4.96 1.64 c2.72 5.88 -2.68 17.04 -8.96 13.84 c-2.12 -1.08 -3.32 -3.16 -3.6 -5.48 s0.16 -4.68 1.04 -6.84 c0.36 -0.88 0.8 -1.76 1.4 -2.56 c0.96 -1.32 2.48 -2.24 4 -2.76 c1.28 -0.44 2.56 -0.12 3.68 0.64 c0.4 0.28 0.72 0.6 1.04 0.96 c0.64 0.72 0.2 0.64 1.68 0.28 c4.08 -1 4.44 -1.88 5 -0.92 z M31.234 19.96 c-1.64 -1.68 -3.52 -1.52 -4.88 0.32 c1.56 0.44 3.8 -0.12 4.88 -0.32 z M32.994 25.880000000000003 c0.2 -1.64 0.08 -2.88 -0.68 -4.36 c-1.68 0.36 -5.92 1.2 -7.2 0.08 c-2.12 3.24 -2.96 8.92 0 11.36 c4.08 3 7.36 -2.72 7.88 -7.08 z M59.908 18.32 c0.24 0.4 0.12 0.96 -0.32 1.2 c-1.12 0.6 -3.68 1.32 -4.96 1.64 c2.72 5.88 -2.68 17.04 -8.96 13.84 c-2.12 -1.08 -3.32 -3.16 -3.6 -5.48 s0.16 -4.68 1.04 -6.84 c0.36 -0.88 0.8 -1.76 1.4 -2.56 c0.96 -1.32 2.48 -2.24 4 -2.76 c1.28 -0.44 2.56 -0.12 3.68 0.64 c0.4 0.28 0.72 0.6 1.04 0.96 c0.64 0.72 0.2 0.64 1.68 0.28 c4.08 -1 4.44 -1.88 5 -0.92 z M51.788000000000004 19.96 c-1.64 -1.68 -3.52 -1.52 -4.88 0.32 c1.56 0.44 3.8 -0.12 4.88 -0.32 z M53.548 25.880000000000003 c0.2 -1.64 0.08 -2.88 -0.68 -4.36 c-1.68 0.36 -5.92 1.2 -7.2 0.08 c-2.12 3.24 -2.96 8.92 0 11.36 c4.08 3 7.36 -2.72 7.88 -7.08 z M78.62200000000001 33.6 c0.36 0.16 0.44 1 0.32 1.2 c-0.52 0.88 -1.48 0.4 -4.32 -1.32 c-2.72 -1.64 -6.04 -4.08 -7.88 -6.72 c-0.08 2.84 -0.12 5.68 0.04 8.52 c0.04 0.72 -0.92 1.2 -1.48 0.64 c-0.96 -0.96 -0.12 -14.76 0.44 -19.92 c0 -0.8 0.92 -1.12 1.48 -0.6 c0.6 0.56 0.08 0.36 -0.36 8.56 c2.6 -2.48 5.32 -4.88 7.68 -7.64 c0.44 -0.52 1.48 -0.2 1.48 0.64 c0 0.92 -7.08 7.48 -8.08 8.44 c1.92 3.2 7.24 6.68 10.68 8.2 z"></path></g></svg>